<?xml version="1.0" encoding="UTF-8" standalone="no"?>
<!-- Created with Inkscape (http://www.inkscape.org/) -->

<svg
   width="150mm"
   height="74.156471mm"
   viewBox="0 0 150 74.156471"
   version="1.1"
   id="svg1"
   xml:space="preserve"
   xmlns="http://www.w3.org/2000/svg"
   xmlns:svg="http://www.w3.org/2000/svg"><defs
     id="defs1" /><g
     id="layer1"
     transform="translate(-13.736528,-130.2265)"><path
       style="fill:none;stroke:#000000;stroke-width:0.127798;stroke-linecap:round;stroke-linejoin:round"
       d="m 121.9147,136.39948 c 1.63509,1.14996 2.96474,2.19211 3.10847,2.24601 0.14375,0.0539 2.08431,1.56324 2.13822,1.65308 0.0539,0.0898 1.81478,1.52728 1.81478,1.52728 0,0 2.33585,1.94056 2.4257,1.99447 0.0898,0.0539 3.21629,3.2702 3.21629,3.2702 l 2.38976,3.10849 2.0843,3.16239 1.29371,2.76709 1.95853,0.34139 2.33586,0.66483 2.49756,0.77263 c 0,0 2.87491,1.11402 3.05459,1.16793 0.17968,0.0539 3.44988,1.88664 3.44988,1.88664 l 2.58741,1.77885 2.58741,2.10228 c 0,0 1.41949,1.65306 1.43745,1.72493 0.0179,0.0719 1.32964,1.81479 1.32964,1.81479 l 1.16794,2.28195 0.68278,2.0843 0.14375,1.47339 0.0539,2.15618 -0.23359,2.26398 -0.57497,2.46163 -1.00622,2.67726 -0.77263,1.76087 c 0,0 -1.16793,1.76089 -1.18589,1.90463 -0.0179,0.14374 -1.68901,2.60538 -1.68901,2.60538 0,0 -1.49136,1.67103 -1.6351,1.85072 -0.14375,0.17968 -1.34761,1.22183 -1.43746,1.2937 -0.0898,0.0719 -2.56944,1.56323 -2.6413,1.61714 -0.0719,0.0539 -2.51555,1.16792 -2.58742,1.20385 -0.0719,0.0359 -3.25223,1.11403 -3.25223,1.11403 l -2.17415,0.64686 -3.48582,0.21562 h -3.52175 c 0,0 -2.22805,-0.0539 -2.46163,-0.0539 -0.23359,0 -2.40774,-0.25156 -2.55147,-0.25156 -0.14375,0 -2.33587,-0.25154 -2.33587,-0.25154 l -2.37179,-0.48514 -2.78506,-0.71873 c 0,0 -2.01243,1.49135 -2.51554,1.5812 -0.50311,0.0898 -3.73737,1.67103 -3.73737,1.67103 l -3.6116,1.38355 -3.7733,1.32964 -3.82722,0.82653 -3.91705,0.70077 -3.52175,0.48513 -3.881116,0.10784 -4.977183,-0.23358 -4.258445,-0.50311 -3.970955,-0.89841 -2.928804,-0.97027 -3.054583,-1.06012 -3.126455,-1.29371 c 0,0 -0.57498,-0.34139 -0.664821,-0.30546 -0.08984,0.0359 -1.706973,0.71872 -1.706973,0.71872 0,0 -2.425699,0.70076 -2.497571,0.75466 -0.07187,0.0539 -1.940558,0.55702 -2.138206,0.55702 -0.197652,0 -2.192114,0.0359 -2.192114,0.0359 0,0 -2.353825,0.16171 -2.443666,0.17968 -0.08985,0.0179 -2.838964,-0.0179 -3.09052,-0.0179 -0.251552,0 -3.234262,-0.0359 -3.234262,-0.0359 0,0 -1.239803,-0.10785 -2.012431,-0.19765 -0.77263,-0.0898 -2.982709,-0.25156 -3.198329,-0.2875 -0.215617,-0.0359 -2.138208,-0.64685 -2.335857,-0.66482 -0.197648,-0.0179 -1.293704,-0.46717 -1.563226,-0.50311 -0.269524,-0.0359 -1.671036,-0.82653 -1.868688,-0.88043 -0.197648,-0.0539 -1.671036,-0.75467 -1.671036,-0.75467 0,0 -0.95231,-0.62889 -1.34761,-0.73669 -0.395298,-0.10784 -2.084303,-1.22184 -2.084303,-1.22184 l -1.689004,-1.25776 -1.706973,-1.38355 c 0,0 -1.365578,-1.07809 -1.45542,-1.22183 -0.08984,-0.14374 -1.293705,-1.07809 -1.293705,-1.07809 l -2.551473,-0.26952 -2.353826,-0.55702 -2.030398,-0.66481 -2.51554,-0.98825 -1.724942,-1.06012 -2.551473,-1.59916 -1.383547,-1.47339 -1.976497,-2.33586 -1.149958,-2.19211 -1.185898,-3.05459 -0.341395,-2.29992 -0.107811,-2.87489 0.377331,-2.06635 0.46717,-1.63509 1.006215,-1.79681 1.617131,-1.77885 2.246019,-1.88666 2.605378,-1.70697 2.192113,-1.04215 2.713188,-0.95231 2.407731,-0.7367 1.509321,-0.23358 1.293706,-0.14375 c 0,0 1.401514,-2.21008 1.455419,-2.28195 0.0539,-0.0719 2.12024,-2.49757 2.12024,-2.49757 l 1.74291,-1.92259 2.659283,-2.51554 2.641315,-1.76087 2.641314,-1.34762 1.706973,-0.46717 2.33586,-0.41327 3.018646,-0.32342 h 2.731157 l 2.335856,0.28749 2.587411,0.55701 c 0,0 2.353825,0.71873 2.461634,0.7906 0.107811,0.0719 2.12024,0.8445 2.12024,0.8445 l 1.275737,0.62889 2.731157,-2.46163 3.234263,-2.92881 3.252233,-2.56944 3.665499,-2.17415 3.25223,-1.77884 4.150649,-2.04837 3.503782,-1.16793 4.348293,-1.14996 4.13266,-0.64685 4.27642,-0.0719 4.36625,0.26953 3.23427,0.75466 3.62957,1.13199 3.07255,1.13199 2.29992,1.13199 z"
       id="path6" /></g><g
     id="layer2"
     transform="translate(-13.736528,-130.2265)"><path
       d="m 81.870793,178.40063 0.13264,0.15475 q -4.686619,4.50976 -12.821881,4.50976 -3.780244,0 -7.339421,-1.17165 -3.448644,1.0169 -7.383634,1.0169 -3.581284,0 -4.642405,-0.37581 -1.061122,-0.39792 -1.061122,-1.03901 0,-1.72433 4.399232,-1.72433 4.929792,0 9.771157,1.61379 6.388833,-1.90117 12.799774,-11.93761 -3.713924,0.90637 -7.516275,0.90637 -4.996112,0 -7.096248,-1.92328 -2.078029,-1.92328 -2.078029,-4.53187 0,-5.43824 6.101447,-8.82057 6.123553,-3.40443 14.435669,-3.40443 1.392721,0 2.962296,0.13264 l -0.02211,0.19896 q -1.348508,-0.13264 -2.87387,-0.13264 -4.775045,0 -9.793264,1.61379 -5.018219,1.61379 -7.693128,4.77504 -2.67491,3.13915 -2.67491,6.21198 0,2.25489 2.078029,3.9571 2.078029,1.70222 6.764647,1.70222 3.603391,0 7.582595,-0.90638 4.752939,-7.78155 10.788065,-12.07025 6.035127,-4.2887 9.439557,-4.2887 1.171654,0 1.901175,0.6632 0.729521,0.6411 0.729521,1.658 0,3.20548 -6.67622,7.64892 -6.676221,4.42134 -13.927215,6.05723 -2.785443,3.97921 -4.111845,5.57089 -1.304295,1.56957 -3.161256,3.09494 -1.856962,1.50325 -3.537071,2.38752 -1.658002,0.88427 -3.957098,1.50325 4.200272,1.19376 7.052035,1.19376 2.498056,0 5.394032,-0.72952 2.918083,-0.75162 6.035127,-3.51496 z m -3.537071,-9.70484 q 8.334222,-2.10013 14.258815,-6.45515 5.924593,-4.37713 5.924593,-7.22889 0,-0.81795 -0.707414,-1.37061 -0.707414,-0.57478 -1.702215,-0.57478 -2.276989,0 -5.526672,1.9675 -3.227577,1.96749 -6.720434,5.9688 -3.492857,3.97921 -5.526673,7.69313 z m -17.000045,13.08716 q -5.084538,-1.63589 -8.444755,-1.63589 -3.824458,0 -3.824458,1.3264 0,0.48635 0.906374,0.84005 0.928481,0.35371 4.509765,0.35371 4.288698,0 6.853074,-0.88427 z m 31.877849,-7.71523 h 1.967495 l -6.21198,6.47726 q -0.906374,0.95059 -0.906374,1.52536 0,0.37581 0.243173,0.57477 0.265281,0.17686 0.530561,0.17686 0.530561,0 1.702215,-0.77374 1.171655,-0.79584 4.509765,-3.6476 l 0.154747,0.15475 q -3.559177,3.00651 -4.730832,3.73603 -1.149548,0.70741 -1.746428,0.70741 -0.530561,0 -0.840055,-0.37581 -0.287387,-0.39792 -0.287387,-0.92848 0,-0.92848 0.906375,-2.32121 l -0.08843,-0.0663 q -4.487658,3.69182 -6.123553,3.69182 -0.685308,0 -1.083228,-0.55267 -0.375814,-0.57477 -0.375814,-1.48114 0,-2.52017 3.537071,-4.68662 3.559177,-2.18856 5.990913,-2.18856 1.260081,0 1.260081,1.06112 0,0.24317 -0.04421,0.61898 z m -1.879069,1.03901 q 0,-0.79584 -1.016908,-0.79584 -1.834855,0 -5.394032,3.20547 -3.537071,3.18337 -3.537071,4.48766 0,0.28739 0.243174,0.55267 0.243174,0.24317 0.685307,0.24317 0.641094,0 2.100136,-0.81795 1.481148,-0.81794 3.625497,-2.6528 2.144349,-1.83485 2.719123,-2.6528 0.574774,-0.84006 0.574774,-1.56958 z m 3.846564,3.44865 -0.154747,-0.15475 q 2.520163,-2.05592 3.514964,-2.94019 0.994801,-0.90637 1.724322,-1.39272 h 2.10014 q -0.61899,0.6632 -1.74643,1.76853 l -4.885582,5.06244 q -0.574774,0.59688 -0.707414,0.9948 v 0.15474 q 0,0.28739 0.243174,0.53056 0.26528,0.22107 0.618987,0.22107 0.972694,0 2.80755,-1.21587 1.856965,-1.23797 3.382325,-2.69701 l 2.80755,-2.6307 q 1.14955,-1.06112 2.40963,-2.18856 h 2.18856 q -2.9844,2.89597 -4.75294,4.88558 l -1.45904,1.63589 q -1.06112,1.19376 -1.06112,1.59168 0,0.6411 0.81795,0.6411 0.97269,0 2.49805,-1.06112 1.54747,-1.08323 4.15606,-3.36022 l 0.15475,0.15475 q -3.80235,3.29389 -5.01822,3.91288 -1.19376,0.61899 -1.83486,0.61899 -0.48634,0 -0.86216,-0.37582 -0.35371,-0.37581 -0.35371,-1.0169 0,-1.61379 2.32121,-3.93499 l 2.10013,-2.16646 -0.11053,-0.13264 q -7.648916,7.53838 -10.235398,7.53838 -0.508454,0 -0.884268,-0.37581 -0.375814,-0.37582 -0.375814,-1.01691 0,-1.41483 1.547469,-3.00651 l 3.316003,-3.40443 -0.154747,-0.0884 q -0.884267,0.81795 -4.111844,3.44865 z m 14.656739,0 -0.15475,-0.15475 3.36022,-2.76334 q 0.79584,-0.64109 1.12744,-0.9948 -0.70742,-0.42002 -0.70742,-1.14955 0,-0.46424 0.3095,-0.81794 0.3316,-0.35371 0.72952,-0.35371 0.28738,0 0.50845,0.24317 0.24317,0.24318 0.24317,0.59688 0,0.35371 -0.24317,0.61899 -0.24317,0.24318 -0.59688,0.24318 -0.24317,0 -0.50845,-0.17686 -0.0221,0.0884 -0.0221,0.11054 0,0.19896 0.30949,0.39792 0.3095,0.19896 0.90638,0.19896 0.86216,0 1.85696,-0.44214 l 1.17165,1.3043 q -0.42002,0.81794 -1.74642,2.03381 -1.3043,1.19376 -2.60859,2.56438 -1.3043,1.34851 -1.48115,1.61379 -0.17686,0.26528 -0.17686,0.50845 0,0.61899 0.70742,0.61899 0.84005,0 2.60859,-0.9727 1.76853,-0.9948 4.50976,-3.38232 l 0.15475,0.15475 q -5.15086,4.44344 -7.31731,4.44344 -0.6411,0 -1.01691,-0.39792 -0.35371,-0.42003 -0.35371,-1.08323 0,-0.84005 0.53056,-1.68011 0.55267,-0.84005 2.34331,-2.58648 1.79064,-1.74643 2.47595,-2.60859 l -0.0884,-0.15474 q -0.92848,0.3316 -1.72432,0.3316 -0.22107,0 -0.46424,-0.0663 z m 21.44349,-4.48766 h 1.96749 l -6.21198,6.47726 q -0.90637,0.95059 -0.90637,1.52536 0,0.37581 0.24317,0.57477 0.26528,0.17686 0.53056,0.17686 0.53056,0 1.70222,-0.77374 1.17165,-0.79584 4.50976,-3.6476 l 0.15475,0.15475 q -3.55918,3.00651 -4.73083,3.73603 -1.14955,0.70741 -1.74643,0.70741 -0.53056,0 -0.84005,-0.37581 -0.28739,-0.39792 -0.28739,-0.92848 0,-0.92848 0.90637,-2.32121 l -0.0884,-0.0663 q -4.48766,3.69182 -6.12356,3.69182 -0.6853,0 -1.08322,-0.55267 -0.37582,-0.57477 -0.37582,-1.48114 0,-2.52017 3.53707,-4.68662 3.55918,-2.18856 5.99091,-2.18856 1.26009,0 1.26009,1.06112 0,0.24317 -0.0442,0.61898 z m -1.87907,1.03901 q 0,-0.79584 -1.01691,-0.79584 -1.83485,0 -5.39403,3.20547 -3.53707,3.18337 -3.53707,4.48766 0,0.28739 0.24317,0.55267 0.24318,0.24317 0.68531,0.24317 0.64109,0 2.10014,-0.81795 1.48114,-0.81794 3.62549,-2.6528 2.14435,-1.83485 2.71913,-2.6528 0.57477,-0.84006 0.57477,-1.56958 z"
       id="text4"
       style="font-size:45.2745px;font-family:'Kunstler Script';-inkscape-font-specification:'Kunstler Script, Normal';stroke:#000000;stroke-width:0.526315;stroke-linecap:round;stroke-linejoin:round"
       aria-label="Laura" /></g></svg>
